<svg width="20" height="14" viewBox="0 0 20 14" fill="none" xmlns="http://www.w3.org/2000/svg">
<path fill-rule="evenodd" clip-rule="evenodd" d="M10 0.583252C6.83943 0.583252 4.57497 1.98935 3.11556 3.44854C2.38827 4.17573 1.85557 4.92041 1.50169 5.52317C1.32485 5.82438 1.1889 6.09654 1.09452 6.32015C1.04758 6.43138 1.00777 6.53802 0.978338 6.63528C0.955048 6.71224 0.916687 6.85042 0.916687 6.99825C0.916687 7.14608 0.955048 7.28426 0.978338 7.36122C1.00777 7.45848 1.04758 7.56513 1.09452 7.67635C1.1889 7.89997 1.32485 8.17213 1.50169 8.47333C1.85557 9.07609 2.38827 9.82077 3.11556 10.548C4.57497 12.0072 6.83943 13.4133 10 13.4133C13.1606 13.4133 15.4251 12.0072 16.8845 10.548C17.6118 9.82077 18.1445 9.07609 18.4984 8.47333C18.6752 8.17213 18.8111 7.89997 18.9055 7.67635C18.9525 7.56513 18.9923 7.45848 19.0217 7.36122C19.045 7.28426 19.0834 7.14608 19.0834 6.99825C19.0834 6.85042 19.045 6.71224 19.0217 6.63528C18.9923 6.53802 18.9525 6.43138 18.9055 6.32015C18.8111 6.09654 18.6752 5.82438 18.4984 5.52317C18.1445 4.92041 17.6118 4.17573 16.8845 3.44854C15.4251 1.98935 13.1606 0.583252 10 0.583252ZM9.99994 5.25C9.03344 5.25 8.24994 6.0335 8.24994 7C8.24994 7.9665 9.03344 8.75 9.99994 8.75C10.9664 8.75 11.7499 7.9665 11.7499 7C11.7499 6.0335 10.9664 5.25 9.99994 5.25ZM6.74994 7C6.74994 5.20507 8.20501 3.75 9.99994 3.75C11.7949 3.75 13.2499 5.20507 13.2499 7C13.2499 8.79493 11.7949 10.25 9.99994 10.25C8.20501 10.25 6.74994 8.79493 6.74994 7Z" fill="#838AA9"/>
</svg>
