<svg width="16" height="17" viewBox="0 0 16 17" fill="none" xmlns="http://www.w3.org/2000/svg">
<path d="M15.7884 12.4531C14.1158 12.8832 12.3431 12.8253 10.7064 12.287C9.06983 11.7488 7.64702 10.7558 6.62757 9.44032C5.60812 8.12487 5.04044 6.54941 5.00015 4.92386C4.95987 3.2983 5.44889 1.69983 6.40208 0.341411C5.07056 0.683356 3.8474 1.32303 2.83754 2.20555C1.82768 3.08808 1.06126 4.18711 0.604045 5.40836C0.146827 6.6296 0.0124564 7.93661 0.212461 9.21724C0.412465 10.4979 0.940873 11.7139 1.75235 12.761C2.56383 13.8081 3.63416 14.655 4.8715 15.2291C6.10885 15.8031 7.47627 16.0872 8.85647 16.0569C10.2367 16.0267 11.5884 15.6829 12.7958 15.0552C14.0031 14.4275 15.03 13.5346 15.7884 12.4531Z" fill="#4B516A"/>
</svg>
