<svg width="21" height="20" viewBox="0 0 21 20" fill="none" xmlns="http://www.w3.org/2000/svg">
<path d="M18.8334 9.99996L19.38 10.4372L19.7298 9.99996L19.38 9.56267L18.8334 9.99996ZM11.3334 9.29996C10.9468 9.29996 10.6334 9.61336 10.6334 9.99996C10.6334 10.3866 10.9468 10.7 11.3334 10.7V9.29996ZM16.0466 14.6039L19.38 10.4372L18.2868 9.56267L14.9534 13.7293L16.0466 14.6039ZM19.38 9.56267L16.0466 5.39601L14.9534 6.27058L18.2868 10.4372L19.38 9.56267ZM18.8334 9.29996H11.3334V10.7H18.8334V9.29996Z" fill="#4B516A"/>
<path d="M12.1666 13.2234V13.3861C12.1666 14.8989 12.1666 15.6554 11.749 16.1956C11.7125 16.2429 11.6739 16.2884 11.6333 16.3322C11.169 16.833 10.4229 16.9573 8.93062 17.206V17.206C5.90119 17.7109 4.38647 17.9634 3.35689 17.1847C3.26872 17.118 3.18431 17.0465 3.10403 16.9705C2.16663 16.0829 2.16663 14.5473 2.16663 11.4761L2.16663 8.52401C2.16663 5.45278 2.16663 3.91717 3.10403 3.02963C3.18431 2.95362 3.26872 2.88211 3.35689 2.81542C4.38647 2.03668 5.9017 2.28922 8.93214 2.79429V2.79429C10.4227 3.04272 11.168 3.16694 11.632 3.66652C11.6735 3.71117 11.7129 3.75769 11.7501 3.80593C12.1666 4.34578 12.1666 5.1011 12.1666 6.61174V6.61174" stroke="#4B516A" stroke-width="1.4" stroke-linejoin="round"/>
</svg>
