<svg width="18" height="16" viewBox="0 0 18 16" fill="none" xmlns="http://www.w3.org/2000/svg">
<path fill-rule="evenodd" clip-rule="evenodd" d="M8.79957 0C9.08247 0 9.35378 0.105357 9.55381 0.292893C9.75385 0.48043 9.86623 0.734784 9.86623 1V2C9.86623 2.26522 9.75385 2.51957 9.55381 2.70711C9.35378 2.89464 9.08247 3 8.79957 3C8.51667 3 8.24536 2.89464 8.04532 2.70711C7.84528 2.51957 7.7329 2.26522 7.7329 2V1C7.7329 0.734784 7.84528 0.48043 8.04532 0.292893C8.24536 0.105357 8.51667 0 8.79957 0ZM13.0662 8C13.0662 9.06087 12.6167 10.0783 11.8166 10.8284C11.0164 11.5786 9.93116 12 8.79957 12C7.66798 12 6.58273 11.5786 5.78258 10.8284C4.98242 10.0783 4.5329 9.06087 4.5329 8C4.5329 6.93913 4.98242 5.92172 5.78258 5.17157C6.58273 4.42143 7.66798 4 8.79957 4C9.93116 4 11.0164 4.42143 11.8166 5.17157C12.6167 5.92172 13.0662 6.93913 13.0662 8ZM12.5713 12.95L13.3254 13.657C13.5266 13.8392 13.7961 13.94 14.0757 13.9377C14.3554 13.9354 14.6229 13.8302 14.8207 13.6448C15.0185 13.4594 15.1307 13.2086 15.1331 12.9464C15.1355 12.6842 15.028 12.4316 14.8337 12.243L14.0796 11.536C13.8784 11.3538 13.609 11.253 13.3293 11.2553C13.0496 11.2576 12.7821 11.3628 12.5843 11.5482C12.3865 11.7336 12.2743 11.9844 12.2719 12.2466C12.2695 12.5088 12.377 12.7614 12.5713 12.95ZM14.8326 2.343C15.0326 2.53053 15.1449 2.78484 15.1449 3.05C15.1449 3.31516 15.0326 3.56947 14.8326 3.757L14.0796 4.464C13.9812 4.55951 13.8635 4.63569 13.7333 4.6881C13.6032 4.74051 13.4632 4.7681 13.3216 4.76925C13.18 4.7704 13.0395 4.7451 12.9084 4.69482C12.7773 4.64454 12.6582 4.57029 12.5581 4.4764C12.4579 4.3825 12.3787 4.27085 12.3251 4.14795C12.2715 4.02506 12.2445 3.89338 12.2457 3.7606C12.2469 3.62782 12.2764 3.4966 12.3323 3.3746C12.3882 3.25259 12.4694 3.14225 12.5713 3.05L13.3254 2.343C13.5255 2.15553 13.7967 2.05021 14.0796 2.05021C14.3624 2.05021 14.6337 2.15553 14.8337 2.343H14.8326ZM16.2662 9C16.5491 9 16.8204 8.89464 17.0205 8.70711C17.2205 8.51957 17.3329 8.26522 17.3329 8C17.3329 7.73478 17.2205 7.48043 17.0205 7.29289C16.8204 7.10536 16.5491 7 16.2662 7H15.1996C14.9167 7 14.6454 7.10536 14.4453 7.29289C14.2453 7.48043 14.1329 7.73478 14.1329 8C14.1329 8.26522 14.2453 8.51957 14.4453 8.70711C14.6454 8.89464 14.9167 9 15.1996 9H16.2662ZM8.79957 13C9.08247 13 9.35378 13.1054 9.55381 13.2929C9.75385 13.4804 9.86623 13.7348 9.86623 14V15C9.86623 15.2652 9.75385 15.5196 9.55381 15.7071C9.35378 15.8946 9.08247 16 8.79957 16C8.51667 16 8.24536 15.8946 8.04532 15.7071C7.84528 15.5196 7.7329 15.2652 7.7329 15V14C7.7329 13.7348 7.84528 13.4804 8.04532 13.2929C8.24536 13.1054 8.51667 13 8.79957 13ZM3.51957 4.464C3.6186 4.55691 3.73619 4.63062 3.86561 4.68093C3.99503 4.73124 4.13375 4.75716 4.27386 4.7572C4.41396 4.75725 4.55271 4.73142 4.68217 4.6812C4.81162 4.63098 4.92926 4.55734 5.02837 4.4645C5.12747 4.37166 5.2061 4.26142 5.25976 4.14009C5.31342 4.01876 5.34107 3.8887 5.34112 3.75735C5.34117 3.62601 5.31362 3.49593 5.26005 3.37457C5.20648 3.2532 5.12794 3.14291 5.0289 3.05L4.2737 2.343C4.07253 2.16084 3.80308 2.06005 3.52341 2.06233C3.24373 2.0646 2.9762 2.16977 2.77843 2.35518C2.58066 2.54059 2.46848 2.7914 2.46605 3.0536C2.46362 3.3158 2.57113 3.5684 2.76544 3.757L3.51957 4.464ZM5.02784 12.95L4.2737 13.657C4.07253 13.8392 3.80308 13.94 3.52341 13.9377C3.24373 13.9354 2.9762 13.8302 2.77843 13.6448C2.58066 13.4594 2.46848 13.2086 2.46605 12.9464C2.46362 12.6842 2.57113 12.4316 2.76544 12.243L3.51957 11.536C3.72074 11.3538 3.99019 11.253 4.26986 11.2553C4.54954 11.2576 4.81707 11.3628 5.01484 11.5482C5.21261 11.7336 5.32479 11.9844 5.32722 12.2466C5.32965 12.5088 5.22214 12.7614 5.02784 12.95ZM2.39957 9C2.68247 9 2.95378 8.89464 3.15382 8.70711C3.35385 8.51957 3.46624 8.26522 3.46624 8C3.46624 7.73478 3.35385 7.48043 3.15382 7.29289C2.95378 7.10536 2.68247 7 2.39957 7H1.3329C1.05 7 0.778693 7.10536 0.578655 7.29289C0.378616 7.48043 0.266235 7.73478 0.266235 8C0.266235 8.26522 0.378616 8.51957 0.578655 8.70711C0.778693 8.89464 1.05 9 1.3329 9H2.39957Z" fill="#2B3E9B"/>
</svg>
